<?xml version="1.0" standalone="no"?><!DOCTYPE svg PUBLIC "-//W3C//DTD SVG 1.1//EN" "http://www.w3.org/Graphics/SVG/1.1/DTD/svg11.dtd"><svg t="1745854536892" class="icon" viewBox="0 0 1024 1024" version="1.1" xmlns="http://www.w3.org/2000/svg" p-id="2644" xmlns:xlink="http://www.w3.org/1999/xlink" width="200" height="200"><path d="M574 1001H146c-27.6 0-50-21.9-50-48.8V63.8C96 36.9 118.5 15 146 15h688c27.6 0 50 21.9 50 48.8v574.1h-40V63.8c0-4.8-4.6-8.8-10-8.8H146c-5.4 0-10 4-10 8.8v888.4c0 4.8 4.6 8.8 10 8.8h428v40z" fill="#888888" p-id="2645"></path><path d="M783.5 1006h-29.2l-1.2-0.1c-7.5-0.9-14.5-3.8-20.4-8.5-5.9-4.7-10.3-11-12.8-18l-7-19.7-19 9c-6.8 3.2-14.3 4.5-21.7 3.6-7.5-0.8-14.5-3.7-20.4-8.3l-0.9-0.7-20.8-20.8-0.8-1c-4.6-5.9-7.4-13-8.2-20.4-0.8-7.4 0.5-14.8 3.6-21.6l9-19-19.8-7.1c-7-2.5-13.2-6.9-17.9-12.7l-0.1-0.1c-4.7-5.9-7.6-12.9-8.5-20.4l-0.1-1.2v-29.2l0.1-1.2c0.9-7.5 3.8-14.5 8.5-20.3 4.7-5.9 11-10.3 18-12.8l19.7-7-9-18.9c-3.2-6.8-4.5-14.3-3.6-21.7 0.8-7.5 3.7-14.5 8.3-20.4l0.7-0.9 20.8-20.8 1-0.8c6-4.6 13-7.5 20.4-8.2 7.4-0.8 14.8 0.5 21.5 3.6l19 9 7-19.8c2.5-7 6.9-13.2 12.7-17.9l0.1-0.1c5.9-4.7 12.9-7.6 20.4-8.5l1.2-0.1h29.2l1.2 0.1c7.5 0.9 14.5 3.8 20.3 8.5 5.9 4.7 10.3 11 12.8 18.1l7 19.7 19-9c6.8-3.2 14.3-4.5 21.7-3.6 7.5 0.8 14.5 3.7 20.4 8.3l0.9 0.7 20.8 20.8 0.8 1c4.6 6 7.5 13 8.2 20.4 0.8 7.4-0.5 14.8-3.6 21.5l-9 19 19.8 7c7 2.5 13.2 6.9 17.9 12.7 4.7 5.9 7.7 12.9 8.6 20.5l0.1 1.2v29.2l-0.1 1.2c-0.9 7.5-3.8 14.5-8.5 20.3-4.7 5.9-11 10.3-18.1 12.8l-19.7 7 9 19c3.2 6.8 4.5 14.3 3.6 21.7-0.8 7.5-3.7 14.5-8.3 20.4l-0.7 0.9-20.8 20.8-1 0.8c-5.9 4.6-13 7.5-20.4 8.2-7.4 0.8-14.8-0.5-21.5-3.6l-19-9-7 19.8c-2.5 7.1-6.9 13.2-12.7 17.9l-0.1 0.1c-5.9 4.7-12.9 7.6-20.4 8.5l-1 0.1z m-25.8-40h22.4v-0.1l14.2-40.1 9-3.2c3.6-1.3 7-2.7 10.7-4.4l8.6-4.1 38.4 18.2 15.9-15.9v-0.1l-18.3-38.5 4.2-8.6c1.5-3.2 3-6.7 4.4-10.6l3.2-8.9 40.1-14.3V813h-0.1l-40-14.2-3.2-8.9c-1.3-3.7-2.8-7.2-4.4-10.6l-4.1-8.6 18.3-38.5-15.8-15.8h-0.1l-38.5 18.3-8.6-4.2c-3.2-1.5-6.7-3-10.6-4.4l-8.9-3.2L780 683h-22.4v0.1l-14.2 40-9 3.2c-3.6 1.3-7 2.7-10.6 4.4l-8.6 4.1-38.4-18.2-15.8 15.8v0.1l18.3 38.5-4.2 8.6c-1.5 3.1-2.9 6.5-4.4 10.5l-3.2 8.9-40.1 14.3v22.4h0.1l40.1 14.3 3.2 8.9c1.3 3.5 2.7 7 4.4 10.7l4.1 8.6-18.2 38.4 15.9 15.9h0.1l38.5-18.3 8.6 4.2c3.2 1.5 6.6 3 10.6 4.4l8.9 3.2 14 40z" fill="#888888" p-id="2646"></path><path d="M768.8 890.1c-36.2 0-65.6-29.4-65.6-65.6s29.4-65.6 65.6-65.6c36.2 0 65.6 29.4 65.6 65.6s-29.4 65.6-65.6 65.6z m0-100.6c-19.3 0-35 15.7-35 35s15.7 35 35 35 35-15.7 35-35-15.7-35-35-35zM740.5 275h-501c-11 0-20-9-20-20s9-20 20-20h501c11 0 20 9 20 20s-9 20-20 20zM740.5 541.4h-501c-11 0-20-9-20-20s9-20 20-20h501c11 0 20 9 20 20s-9 20-20 20zM500 807.8H228.5c-11 0-20-9-20-20s9-20 20-20H500c11 0 20 9 20 20s-9 20-20 20z" fill="#888888" p-id="2647"></path></svg>